<svg width="1280" height="720" xmlns="http://www.w3.org/2000/svg" xmlns:xlink="http://www.w3.org/1999/xlink" overflow="hidden"><defs><filter id="fx0" x="-10%" y="-10%" width="120%" height="120%" filterUnits="userSpaceOnUse" primitiveUnits="userSpaceOnUse"><feComponentTransfer color-interpolation-filters="sRGB"><feFuncR type="discrete" tableValues="1 1"/><feFuncG type="discrete" tableValues="1 1"/><feFuncB type="discrete" tableValues="1 1"/><feFuncA type="linear" slope="0.4" intercept="0"/></feComponentTransfer><feGaussianBlur stdDeviation="4.44444 4.44444"/></filter><filter id="fx1" x="-10%" y="-10%" width="120%" height="120%" filterUnits="userSpaceOnUse" primitiveUnits="userSpaceOnUse"><feComponentTransfer color-interpolation-filters="sRGB"><feFuncR type="discrete" tableValues="0.65098 0.65098"/><feFuncG type="discrete" tableValues="0.65098 0.65098"/><feFuncB type="discrete" tableValues="0.65098 0.65098"/><feFuncA type="linear" slope="0.4" intercept="0"/></feComponentTransfer><feGaussianBlur stdDeviation="6.66667 6.66667"/></filter><filter id="fx2" x="-10%" y="-10%" width="120%" height="120%" filterUnits="userSpaceOnUse" primitiveUnits="userSpaceOnUse"><feComponentTransfer color-interpolation-filters="sRGB"><feFuncR type="discrete" tableValues="1 1"/><feFuncG type="discrete" tableValues="1 1"/><feFuncB type="discrete" tableValues="1 1"/><feFuncA type="linear" slope="0.4" intercept="0"/></feComponentTransfer><feGaussianBlur stdDeviation="4.44444 4.44444"/></filter><filter id="fx3" x="-10%" y="-10%" width="120%" height="120%" filterUnits="userSpaceOnUse" primitiveUnits="userSpaceOnUse"><feComponentTransfer color-interpolation-filters="sRGB"><feFuncR type="discrete" tableValues="0.65098 0.65098"/><feFuncG type="discrete" tableValues="0.65098 0.65098"/><feFuncB type="discrete" tableValues="0.65098 0.65098"/><feFuncA type="linear" slope="0.4" intercept="0"/></feComponentTransfer><feGaussianBlur stdDeviation="6.66667 6.66667"/></filter><filter id="fx4" x="-10%" y="-10%" width="120%" height="120%" filterUnits="userSpaceOnUse" primitiveUnits="userSpaceOnUse"><feComponentTransfer color-interpolation-filters="sRGB"><feFuncR type="discrete" tableValues="1 1"/><feFuncG type="discrete" tableValues="1 1"/><feFuncB type="discrete" tableValues="1 1"/><feFuncA type="linear" slope="0.4" intercept="0"/></feComponentTransfer><feGaussianBlur stdDeviation="4.44444 4.44444"/></filter><filter id="fx5" x="-10%" y="-10%" width="120%" height="120%" filterUnits="userSpaceOnUse" primitiveUnits="userSpaceOnUse"><feComponentTransfer color-interpolation-filters="sRGB"><feFuncR type="discrete" tableValues="0.65098 0.65098"/><feFuncG type="discrete" tableValues="0.65098 0.65098"/><feFuncB type="discrete" tableValues="0.65098 0.65098"/><feFuncA type="linear" slope="0.4" intercept="0"/></feComponentTransfer><feGaussianBlur stdDeviation="6.66667 6.66667"/></filter><filter id="fx6" x="-10%" y="-10%" width="120%" height="120%" filterUnits="userSpaceOnUse" primitiveUnits="userSpaceOnUse"><feComponentTransfer color-interpolation-filters="sRGB"><feFuncR type="discrete" tableValues="1 1"/><feFuncG type="discrete" tableValues="1 1"/><feFuncB type="discrete" tableValues="1 1"/><feFuncA type="linear" slope="0.4" intercept="0"/></feComponentTransfer><feGaussianBlur stdDeviation="4.44444 4.44444"/></filter><filter id="fx7" x="-10%" y="-10%" width="120%" height="120%" filterUnits="userSpaceOnUse" primitiveUnits="userSpaceOnUse"><feComponentTransfer color-interpolation-filters="sRGB"><feFuncR type="discrete" tableValues="0.65098 0.65098"/><feFuncG type="discrete" tableValues="0.65098 0.65098"/><feFuncB type="discrete" tableValues="0.65098 0.65098"/><feFuncA type="linear" slope="0.4" intercept="0"/></feComponentTransfer><feGaussianBlur stdDeviation="6.66667 6.66667"/></filter><filter id="fx8" x="-10%" y="-10%" width="120%" height="120%" filterUnits="userSpaceOnUse" primitiveUnits="userSpaceOnUse"><feComponentTransfer color-interpolation-filters="sRGB"><feFuncR type="discrete" tableValues="1 1"/><feFuncG type="discrete" tableValues="1 1"/><feFuncB type="discrete" tableValues="1 1"/><feFuncA type="linear" slope="0.4" intercept="0"/></feComponentTransfer><feGaussianBlur stdDeviation="4.44444 4.44444"/></filter><filter id="fx9" x="-10%" y="-10%" width="120%" height="120%" filterUnits="userSpaceOnUse" primitiveUnits="userSpaceOnUse"><feComponentTransfer color-interpolation-filters="sRGB"><feFuncR type="discrete" tableValues="0.65098 0.65098"/><feFuncG type="discrete" tableValues="0.65098 0.65098"/><feFuncB type="discrete" tableValues="0.65098 0.65098"/><feFuncA type="linear" slope="0.4" intercept="0"/></feComponentTransfer><feGaussianBlur stdDeviation="6.66667 6.66667"/></filter><filter id="fx10" x="-10%" y="-10%" width="120%" height="120%" filterUnits="userSpaceOnUse" primitiveUnits="userSpaceOnUse"><feComponentTransfer color-interpolation-filters="sRGB"><feFuncR type="discrete" tableValues="0.65098 0.65098"/><feFuncG type="discrete" tableValues="0.65098 0.65098"/><feFuncB type="discrete" tableValues="0.65098 0.65098"/><feFuncA type="linear" slope="0.4" intercept="0"/></feComponentTransfer><feGaussianBlur stdDeviation="6.66667 6.66667"/></filter><clipPath id="clip11"><rect x="0" y="0" width="1280" height="720"/></clipPath><clipPath id="clip12"><rect x="-2" y="-2" width="215" height="166"/></clipPath><clipPath id="clip13"><rect x="0" y="0" width="213" height="162"/></clipPath><clipPath id="clip14"><rect x="-3" y="-3" width="232" height="181"/></clipPath><clipPath id="clip15"><rect x="0" y="0" width="225" height="174"/></clipPath><linearGradient x1="293.75" y1="71.25" x2="451.25" y2="228.75" gradientUnits="userSpaceOnUse" spreadMethod="reflect" id="fill16"><stop offset="0" stop-color="#EDEEF3"/><stop offset="0.95" stop-color="#FFFFFF"/><stop offset="1" stop-color="#FFFFFF"/></linearGradient><clipPath id="clip17"><rect x="-2" y="-2" width="215" height="166"/></clipPath><clipPath id="clip18"><rect x="0" y="0" width="213" height="162"/></clipPath><clipPath id="clip19"><rect x="-3" y="-3" width="232" height="181"/></clipPath><clipPath id="clip20"><rect x="0" y="0" width="225" height="174"/></clipPath><linearGradient x1="547.75" y1="71.25" x2="705.25" y2="228.75" gradientUnits="userSpaceOnUse" spreadMethod="reflect" id="fill21"><stop offset="0" stop-color="#EDEEF3"/><stop offset="0.0558824" stop-color="#EEEFF4"/><stop offset="0.111765" stop-color="#F0F1F5"/><stop offset="0.167647" stop-color="#F2F3F6"/><stop offset="0.223529" stop-color="#F4F4F7"/><stop offset="0.279412" stop-color="#F5F6F8"/><stop offset="0.335294" stop-color="#F7F7F9"/><stop offset="0.391176" stop-color="#F8F8FA"/><stop offset="0.447059" stop-color="#F9F9FB"/><stop offset="0.502941" stop-color="#FAFAFC"/><stop offset="0.558824" stop-color="#FBFBFC"/><stop offset="0.614706" stop-color="#FCFCFD"/><stop offset="0.670588" stop-color="#FDFDFD"/><stop offset="0.726471" stop-color="#FDFDFE"/><stop offset="0.782353" stop-color="#FEFEFE"/><stop offset="0.838235" stop-color="#FEFEFE"/><stop offset="0.894118" stop-color="#FEFEFE"/><stop offset="0.95" stop-color="#FFFFFF"/><stop offset="0.952941" stop-color="#FEFEFE"/><stop offset="0.955882" stop-color="#FEFEFE"/><stop offset="0.958824" stop-color="#FEFEFE"/><stop offset="0.961765" stop-color="#FDFDFE"/><stop offset="0.964706" stop-color="#FDFDFD"/><stop offset="0.967647" stop-color="#FCFCFD"/><stop offset="0.970588" stop-color="#FBFBFC"/><stop offset="0.973529" stop-color="#FAFAFC"/><stop offset="0.976471" stop-color="#F9F9FB"/><stop offset="0.979412" stop-color="#F8F8FA"/><stop offset="0.982353" stop-color="#F7F7F9"/><stop offset="0.985294" stop-color="#F5F6F8"/><stop offset="0.988235" stop-color="#F4F4F7"/><stop offset="0.991176" stop-color="#F2F3F6"/><stop offset="0.994118" stop-color="#F0F1F5"/><stop offset="0.997059" stop-color="#EEEFF4"/><stop offset="1" stop-color="#EDEEF3"/></linearGradient><clipPath id="clip22"><rect x="-2" y="-2" width="215" height="166"/></clipPath><clipPath id="clip23"><rect x="0" y="0" width="213" height="162"/></clipPath><clipPath id="clip24"><rect x="-3" y="-3" width="232" height="181"/></clipPath><clipPath id="clip25"><rect x="0" y="0" width="225" height="174"/></clipPath><linearGradient x1="802.75" y1="71.25" x2="960.25" y2="228.75" gradientUnits="userSpaceOnUse" spreadMethod="reflect" id="fill26"><stop offset="0" stop-color="#EDEEF3"/><stop offset="0.0558824" stop-color="#EEEFF4"/><stop offset="0.111765" stop-color="#F0F1F5"/><stop offset="0.167647" stop-color="#F2F3F6"/><stop offset="0.223529" stop-color="#F4F4F7"/><stop offset="0.279412" stop-color="#F5F6F8"/><stop offset="0.335294" stop-color="#F7F7F9"/><stop offset="0.391176" stop-color="#F8F8FA"/><stop offset="0.447059" stop-color="#F9F9FB"/><stop offset="0.502941" stop-color="#FAFAFC"/><stop offset="0.558824" stop-color="#FBFBFC"/><stop offset="0.614706" stop-color="#FCFCFD"/><stop offset="0.670588" stop-color="#FDFDFD"/><stop offset="0.726471" stop-color="#FDFDFE"/><stop offset="0.782353" stop-color="#FEFEFE"/><stop offset="0.838235" stop-color="#FEFEFE"/><stop offset="0.894118" stop-color="#FEFEFE"/><stop offset="0.95" stop-color="#FFFFFF"/><stop offset="0.952941" stop-color="#FEFEFE"/><stop offset="0.955882" stop-color="#FEFEFE"/><stop offset="0.958824" stop-color="#FEFEFE"/><stop offset="0.961765" stop-color="#FDFDFE"/><stop offset="0.964706" stop-color="#FDFDFD"/><stop offset="0.967647" stop-color="#FCFCFD"/><stop offset="0.970588" stop-color="#FBFBFC"/><stop offset="0.973529" stop-color="#FAFAFC"/><stop offset="0.976471" stop-color="#F9F9FB"/><stop offset="0.979412" stop-color="#F8F8FA"/><stop offset="0.982353" stop-color="#F7F7F9"/><stop offset="0.985294" stop-color="#F5F6F8"/><stop offset="0.988235" stop-color="#F4F4F7"/><stop offset="0.991176" stop-color="#F2F3F6"/><stop offset="0.994118" stop-color="#F0F1F5"/><stop offset="0.997059" stop-color="#EEEFF4"/><stop offset="1" stop-color="#EDEEF3"/></linearGradient><clipPath id="clip27"><rect x="-2" y="-2" width="215" height="166"/></clipPath><clipPath id="clip28"><rect x="0" y="0" width="213" height="162"/></clipPath><clipPath id="clip29"><rect x="-3" y="-3" width="232" height="181"/></clipPath><clipPath id="clip30"><rect x="0" y="0" width="225" height="174"/></clipPath><linearGradient x1="1067.75" y1="71.25" x2="1225.25" y2="228.75" gradientUnits="userSpaceOnUse" spreadMethod="reflect" id="fill31"><stop offset="0" stop-color="#EDEEF3"/><stop offset="0.0558824" stop-color="#EEEFF4"/><stop offset="0.111765" stop-color="#F0F1F5"/><stop offset="0.167647" stop-color="#F2F3F6"/><stop offset="0.223529" stop-color="#F4F4F7"/><stop offset="0.279412" stop-color="#F5F6F8"/><stop offset="0.335294" stop-color="#F7F7F9"/><stop offset="0.391176" stop-color="#F8F8FA"/><stop offset="0.447059" stop-color="#F9F9FB"/><stop offset="0.502941" stop-color="#FAFAFC"/><stop offset="0.558824" stop-color="#FBFBFC"/><stop offset="0.614706" stop-color="#FCFCFD"/><stop offset="0.670588" stop-color="#FDFDFD"/><stop offset="0.726471" stop-color="#FDFDFE"/><stop offset="0.782353" stop-color="#FEFEFE"/><stop offset="0.838235" stop-color="#FEFEFE"/><stop offset="0.894118" stop-color="#FEFEFE"/><stop offset="0.95" stop-color="#FFFFFF"/><stop offset="0.952941" stop-color="#FEFEFE"/><stop offset="0.955882" stop-color="#FEFEFE"/><stop offset="0.958824" stop-color="#FEFEFE"/><stop offset="0.961765" stop-color="#FDFDFE"/><stop offset="0.964706" stop-color="#FDFDFD"/><stop offset="0.967647" stop-color="#FCFCFD"/><stop offset="0.970588" stop-color="#FBFBFC"/><stop offset="0.973529" stop-color="#FAFAFC"/><stop offset="0.976471" stop-color="#F9F9FB"/><stop offset="0.979412" stop-color="#F8F8FA"/><stop offset="0.982353" stop-color="#F7F7F9"/><stop offset="0.985294" stop-color="#F5F6F8"/><stop offset="0.988235" stop-color="#F4F4F7"/><stop offset="0.991176" stop-color="#F2F3F6"/><stop offset="0.994118" stop-color="#F0F1F5"/><stop offset="0.997059" stop-color="#EEEFF4"/><stop offset="1" stop-color="#EDEEF3"/></linearGradient><clipPath id="clip32"><rect x="-2" y="-2" width="990" height="457"/></clipPath><clipPath id="clip33"><rect x="0" y="0" width="987" height="454"/></clipPath><clipPath id="clip34"><rect x="-3" y="-3" width="1006" height="474"/></clipPath><clipPath id="clip35"><rect x="0" y="0" width="999" height="466"/></clipPath><linearGradient x1="414.25" y1="112.75" x2="1104.75" y2="803.25" gradientUnits="userSpaceOnUse" spreadMethod="reflect" id="fill36"><stop offset="0" stop-color="#EDEEF3"/><stop offset="0.0558824" stop-color="#EEEFF4"/><stop offset="0.111765" stop-color="#F0F1F5"/><stop offset="0.167647" stop-color="#F2F3F6"/><stop offset="0.223529" stop-color="#F4F4F7"/><stop offset="0.279412" stop-color="#F5F6F8"/><stop offset="0.335294" stop-color="#F7F7F9"/><stop offset="0.391176" stop-color="#F8F8FA"/><stop offset="0.447059" stop-color="#F9F9FB"/><stop offset="0.502941" stop-color="#FAFAFC"/><stop offset="0.558824" stop-color="#FBFBFC"/><stop offset="0.614706" stop-color="#FCFCFD"/><stop offset="0.670588" stop-color="#FDFDFD"/><stop offset="0.726471" stop-color="#FDFDFE"/><stop offset="0.782353" stop-color="#FEFEFE"/><stop offset="0.838235" stop-color="#FEFEFE"/><stop offset="0.894118" stop-color="#FEFEFE"/><stop offset="0.95" stop-color="#FFFFFF"/><stop offset="0.952941" stop-color="#FEFEFE"/><stop offset="0.955882" stop-color="#FEFEFE"/><stop offset="0.958824" stop-color="#FEFEFE"/><stop offset="0.961765" stop-color="#FDFDFE"/><stop offset="0.964706" stop-color="#FDFDFD"/><stop offset="0.967647" stop-color="#FCFCFD"/><stop offset="0.970588" stop-color="#FBFBFC"/><stop offset="0.973529" stop-color="#FAFAFC"/><stop offset="0.976471" stop-color="#F9F9FB"/><stop offset="0.979412" stop-color="#F8F8FA"/><stop offset="0.982353" stop-color="#F7F7F9"/><stop offset="0.985294" stop-color="#F5F6F8"/><stop offset="0.988235" stop-color="#F4F4F7"/><stop offset="0.991176" stop-color="#F2F3F6"/><stop offset="0.994118" stop-color="#F0F1F5"/><stop offset="0.997059" stop-color="#EEEFF4"/><stop offset="1" stop-color="#EDEEF3"/></linearGradient><clipPath id="clip37"><rect x="-3" y="-3" width="243" height="771"/></clipPath><clipPath id="clip38"><rect x="0" y="0" width="236" height="747"/></clipPath><linearGradient x1="-64.5" y1="131.5" x2="392.5" y2="588.5" gradientUnits="userSpaceOnUse" spreadMethod="reflect" id="fill39"><stop offset="0" stop-color="#AD34F0"/><stop offset="0.23" stop-color="#AD34F0"/><stop offset="0.95" stop-color="#FACADF"/><stop offset="1" stop-color="#EDEEF3"/></linearGradient></defs><g clip-path="url(#clip11)"><rect x="0" y="0" width="1280" height="720" fill="#FFFFFF"/><path d="M84 53.6748C84 32.8676 100.868 16 121.675 16L1221.33 16C1242.13 16 1259 32.8676 1259 53.6748L1259 666.325C1259 687.132 1242.13 704 1221.33 704L121.675 704C100.868 704 84 687.132 84 666.325Z" fill="#F3F4F7" fill-rule="evenodd"/><g clip-path="url(#clip12)" filter="url(#fx0)" transform="translate(257 60)"><g clip-path="url(#clip13)"><path d="M14.5719 36.5723C14.5719 24.4218 24.4218 14.5719 36.5723 14.5719L175.571 14.5719C187.722 14.5719 197.572 24.4218 197.572 36.5723L197.572 124.571C197.572 136.722 187.722 146.572 175.571 146.572L36.5723 146.572C24.4218 146.572 14.5719 136.722 14.5719 124.571Z" fill="#D9D9D9" fill-rule="evenodd"/></g></g><path d="M281 106C281 93.8499 290.85 84 303 84L442 84C454.15 84 464 93.8499 464 106L464 194C464 206.15 454.15 216 442 216L303 216C290.85 216 281 206.15 281 194Z" fill="#D9D9D9" fill-rule="evenodd"/><g clip-path="url(#clip14)" filter="url(#fx1)" transform="translate(274 77)"><g clip-path="url(#clip15)"><path d="M21.1422 43.1426C21.1422 30.9921 30.9921 21.1421 43.1426 21.1421L182.142 21.1421C194.292 21.1421 204.142 30.9921 204.142 43.1426L204.142 131.142C204.142 143.292 194.292 153.142 182.142 153.142L43.1426 153.142C30.9921 153.142 21.1422 143.292 21.1422 131.142Z" fill="#FF0000" fill-rule="evenodd"/></g></g><path d="M281 106C281 93.8499 290.85 84 303 84L442 84C454.15 84 464 93.8499 464 106L464 194C464 206.15 454.15 216 442 216L303 216C290.85 216 281 206.15 281 194Z" fill="url(#fill16)" fill-rule="evenodd"/><g clip-path="url(#clip17)" filter="url(#fx2)" transform="translate(511 60)"><g clip-path="url(#clip18)"><path d="M14.5719 36.5723C14.5719 24.4218 24.4218 14.5719 36.5723 14.5719L175.571 14.5719C187.722 14.5719 197.572 24.4218 197.572 36.5723L197.572 124.571C197.572 136.722 187.722 146.572 175.571 146.572L36.5723 146.572C24.4218 146.572 14.5719 136.722 14.5719 124.571Z" fill="#D9D9D9" fill-rule="evenodd"/></g></g><path d="M535 106C535 93.8499 544.85 84 557 84L696 84C708.15 84 718 93.8499 718 106L718 194C718 206.15 708.15 216 696 216L557 216C544.85 216 535 206.15 535 194Z" fill="#D9D9D9" fill-rule="evenodd"/><g clip-path="url(#clip19)" filter="url(#fx3)" transform="translate(528 77)"><g clip-path="url(#clip20)"><path d="M21.1422 43.1426C21.1422 30.9921 30.9921 21.1421 43.1426 21.1421L182.142 21.1421C194.292 21.1421 204.142 30.9921 204.142 43.1426L204.142 131.142C204.142 143.292 194.292 153.142 182.142 153.142L43.1426 153.142C30.9921 153.142 21.1422 143.292 21.1422 131.142Z" fill="#FF0000" fill-rule="evenodd"/></g></g><path d="M535 106C535 93.8499 544.85 84 557 84L696 84C708.15 84 718 93.8499 718 106L718 194C718 206.15 708.15 216 696 216L557 216C544.85 216 535 206.15 535 194Z" fill="url(#fill21)" fill-rule="evenodd"/><g clip-path="url(#clip22)" filter="url(#fx4)" transform="translate(766 60)"><g clip-path="url(#clip23)"><path d="M14.5719 36.5723C14.5719 24.4218 24.4218 14.5719 36.5723 14.5719L175.571 14.5719C187.722 14.5719 197.572 24.4218 197.572 36.5723L197.572 124.571C197.572 136.722 187.722 146.572 175.571 146.572L36.5723 146.572C24.4218 146.572 14.5719 136.722 14.5719 124.571Z" fill="#D9D9D9" fill-rule="evenodd"/></g></g><path d="M790 106C790 93.8499 799.85 84 812 84L951 84C963.15 84 973 93.8499 973 106L973 194C973 206.15 963.15 216 951 216L812 216C799.85 216 790 206.15 790 194Z" fill="#D9D9D9" fill-rule="evenodd"/><g clip-path="url(#clip24)" filter="url(#fx5)" transform="translate(783 77)"><g clip-path="url(#clip25)"><path d="M21.1422 43.1426C21.1422 30.9921 30.9921 21.1421 43.1426 21.1421L182.142 21.1421C194.292 21.1421 204.142 30.9921 204.142 43.1426L204.142 131.142C204.142 143.292 194.292 153.142 182.142 153.142L43.1426 153.142C30.9921 153.142 21.1422 143.292 21.1422 131.142Z" fill="#FF0000" fill-rule="evenodd"/></g></g><path d="M790 106C790 93.8499 799.85 84 812 84L951 84C963.15 84 973 93.8499 973 106L973 194C973 206.15 963.15 216 951 216L812 216C799.85 216 790 206.15 790 194Z" fill="url(#fill26)" fill-rule="evenodd"/><g clip-path="url(#clip27)" filter="url(#fx6)" transform="translate(1031 60)"><g clip-path="url(#clip28)"><path d="M14.5719 36.5723C14.5719 24.4218 24.4218 14.5719 36.5723 14.5719L175.571 14.5719C187.722 14.5719 197.572 24.4218 197.572 36.5723L197.572 124.571C197.572 136.722 187.722 146.572 175.571 146.572L36.5723 146.572C24.4218 146.572 14.5719 136.722 14.5719 124.571Z" fill="#D9D9D9" fill-rule="evenodd"/></g></g><path d="M1055 106C1055 93.8499 1064.85 84 1077 84L1216 84C1228.15 84 1238 93.8499 1238 106L1238 194C1238 206.15 1228.15 216 1216 216L1077 216C1064.85 216 1055 206.15 1055 194Z" fill="#D9D9D9" fill-rule="evenodd"/><g clip-path="url(#clip29)" filter="url(#fx7)" transform="translate(1048 77)"><g clip-path="url(#clip30)"><path d="M21.1421 43.1426C21.1421 30.9921 30.992 21.1421 43.1425 21.1421L182.142 21.1421C194.292 21.1421 204.142 30.9921 204.142 43.1426L204.142 131.142C204.142 143.292 194.292 153.142 182.142 153.142L43.1425 153.142C30.992 153.142 21.1421 143.292 21.1421 131.142Z" fill="#FF0000" fill-rule="evenodd"/></g></g><path d="M1055 106C1055 93.8499 1064.85 84 1077 84L1216 84C1228.15 84 1238 93.8499 1238 106L1238 194C1238 206.15 1228.15 216 1216 216L1077 216C1064.85 216 1055 206.15 1055 194Z" fill="url(#fill31)" fill-rule="evenodd"/><g clip-path="url(#clip32)" filter="url(#fx8)" transform="translate(257 222)"><g clip-path="url(#clip33)"><path d="M14.5719 85.2396C14.5719 46.2109 46.2109 14.5719 85.2396 14.5719L900.904 14.5719C939.933 14.5719 971.572 46.2109 971.572 85.2396L971.572 367.904C971.572 406.933 939.933 438.572 900.904 438.572L85.2396 438.572C46.2109 438.572 14.5719 406.933 14.5719 367.904Z" fill="#D9D9D9" fill-rule="evenodd"/></g></g><path d="M281 316.668C281 277.639 312.639 246 351.668 246L1167.33 246C1206.36 246 1238 277.639 1238 316.668L1238 599.332C1238 638.361 1206.36 670 1167.33 670L351.668 670C312.639 670 281 638.361 281 599.332Z" fill="#D9D9D9" fill-rule="evenodd"/><g clip-path="url(#clip34)" filter="url(#fx9)" transform="translate(274 239)"><g clip-path="url(#clip35)"><path d="M21.1422 56.2028C21.1422 36.8394 36.8394 21.1422 56.2028 21.1422L943.081 21.1422C962.445 21.1422 978.142 36.8394 978.142 56.2028L978.142 410.081C978.142 429.445 962.445 445.142 943.081 445.142L56.2028 445.142C36.8394 445.142 21.1422 429.445 21.1422 410.081Z" fill="#FF0000" fill-rule="evenodd"/></g></g><path d="M281 281.061C281 261.697 296.697 246 316.061 246L1202.94 246C1222.3 246 1238 261.697 1238 281.061L1238 634.939C1238 654.303 1222.3 670 1202.94 670L316.061 670C296.697 670 281 654.303 281 634.939Z" fill="url(#fill36)" fill-rule="evenodd"/><g clip-path="url(#clip37)" filter="url(#fx10)" transform="translate(60 -7)"><g clip-path="url(#clip38)"><path d="M21.1421 61.6744C21.1421 39.2891 39.2891 21.1421 61.6746 21.1421L174.61 21.1421C196.995 21.1421 215.142 39.2891 215.142 61.6744L215.142 700.61C215.142 722.995 196.995 741.142 174.61 741.142L61.6746 741.142C39.2891 741.142 21.1421 722.995 21.1421 700.61Z" fill="#FF0000" fill-rule="evenodd"/></g></g><path d="M67 40.5323C67 18.1469 85.147 0 107.532 0L220.468 0C242.853-5.7291e-15 261 18.1469 261 40.5323L261 679.468C261 701.853 242.853 720 220.468 720L107.532 720C85.147 720 67 701.853 67 679.468Z" fill="url(#fill39)" fill-rule="evenodd"/><path d="M60 142C60 84.5624 106.562 38 164 38 221.438 38 268 84.5624 268 142 268 199.438 221.438 246 164 246 106.562 246 60 199.438 60 142Z" fill="#EDEEF3" fill-rule="evenodd"/></g></svg>